<svg width="76" height="24" viewBox="0 0 76 24" fill="none" xmlns="http://www.w3.org/2000/svg">
<g clip-path="url(#clip0_38_2069)">
<path d="M2.03139 3.8548C2.55236 2.89968 3.2839 2.14516 4.21886 1.60058C5.16309 1.03078 6.24009 0.753418 7.43166 0.753418C8.64073 0.753418 9.72806 1.02982 10.6739 1.60058C11.6089 2.14517 12.3404 2.89968 12.8614 3.8548C13.3837 4.81238 13.6393 5.88177 13.6393 7.04953V17.3331C13.6393 17.7659 13.7422 18.1443 13.9418 18.4821C14.1501 18.8346 14.4169 19.1083 14.7446 19.3122C15.088 19.514 15.4464 19.6116 15.8295 19.6116C16.2141 19.6116 16.5601 19.5133 16.8797 19.3153C17.2055 19.1137 17.46 18.8447 17.6483 18.4994L17.6531 18.4906L17.6582 18.4821C17.8577 18.1443 17.9606 17.7659 17.9606 17.3331V1.68672V1.10701H18.5403H21.3691H21.9487V1.68672V16.9501C21.9487 18.1178 21.6931 19.1872 21.1708 20.1448C20.6519 21.096 19.9341 21.8583 19.0223 22.4227L19.0179 22.4254L19.0136 22.4279C18.0865 22.9799 17.0184 23.2462 15.8295 23.2462C14.6402 23.2462 13.5649 22.9797 12.6209 22.431L12.614 22.4269L12.6072 22.4227C11.6954 21.8583 10.9775 21.096 10.4587 20.1448C9.93633 19.1872 9.68066 18.1178 9.68066 16.9501V6.66646C9.68066 6.23372 9.5778 5.85528 9.37826 5.51754C9.1726 5.16957 8.89906 4.89604 8.55113 4.69041C8.20986 4.48878 7.84053 4.38798 7.43166 4.38798C7.02481 4.38798 6.65714 4.48777 6.31734 4.68739C5.99235 4.88967 5.72723 5.16054 5.51967 5.5089C5.33702 5.84724 5.24157 6.2291 5.24157 6.66646V22.3129V22.8926H4.66186H1.83313H1.25342V22.3129V7.04953C1.25342 5.88177 1.50907 4.81238 2.03139 3.8548ZM2.03139 3.8548L2.53106 4.12734" stroke="url(#paint0_linear_38_2069)" stroke-width="1.15942"/>
</g>
<rect x="33.1665" y="2" width="42" height="20" rx="10" fill="#18181B"/>
<path d="M41.8838 16V8.72727H44.6679C45.1935 8.72727 45.6303 8.81013 45.9783 8.97585C46.3287 9.1392 46.5903 9.36293 46.7631 9.64702C46.9383 9.93111 47.0259 10.2531 47.0259 10.6129C47.0259 10.9089 46.9691 11.1622 46.8554 11.3729C46.7418 11.5812 46.5891 11.7505 46.3973 11.8807C46.2056 12.0109 45.9913 12.1044 45.7546 12.1612V12.2322C46.0126 12.2464 46.26 12.3258 46.4968 12.4702C46.7359 12.6122 46.9312 12.8134 47.0827 13.0739C47.2342 13.3343 47.31 13.6491 47.31 14.0185C47.31 14.3949 47.2188 14.7334 47.0365 15.0341C46.8542 15.3324 46.5796 15.5679 46.2127 15.7408C45.8457 15.9136 45.3841 16 44.8277 16H41.8838ZM43.2013 14.8991H44.6182C45.0964 14.8991 45.4409 14.808 45.6516 14.6257C45.8647 14.4411 45.9712 14.2043 45.9712 13.9155C45.9712 13.7 45.9179 13.5059 45.8114 13.3331C45.7049 13.1579 45.5533 13.0206 45.3568 12.9212C45.1603 12.8194 44.926 12.7685 44.6537 12.7685H43.2013V14.8991ZM43.2013 11.8203H44.5046C44.7318 11.8203 44.9366 11.7789 45.1189 11.696C45.3012 11.6108 45.4444 11.4912 45.5486 11.3374C45.6551 11.1811 45.7084 10.9964 45.7084 10.7834C45.7084 10.5017 45.609 10.2696 45.4101 10.0874C45.2136 9.90507 44.9212 9.81392 44.533 9.81392H43.2013V11.8203ZM48.4561 16V8.72727H53.1862V9.83168H49.7736V11.8061H52.9412V12.9105H49.7736V14.8956H53.2146V16H48.4561ZM54.2107 9.83168V8.72727H60.0133V9.83168H57.7654V16H56.4586V9.83168H54.2107ZM61.1869 16H59.7807L62.341 8.72727H63.9675L66.5314 16H65.1251L63.1827 10.2188H63.1258L61.1869 16ZM61.2331 13.1484H65.0683V14.2067H61.2331V13.1484Z" fill="#71717A"/>
<defs>
<linearGradient id="paint0_linear_38_2069" x1="23.2608" y1="0.213442" x2="0.547457" y2="24.1545" gradientUnits="userSpaceOnUse">
<stop stop-color="#5EEAD4"/>
<stop offset="1" stop-color="#0D9488"/>
</linearGradient>
<clipPath id="clip0_38_2069">
<rect width="22.6667" height="24" fill="white" transform="translate(0.5)"/>
</clipPath>
</defs>
</svg>
